# xmcd
#
# Track frame offsets:
#	150
#	13960
#	28107
#	40265
#	60648
#	76034
#	94430
#	116500
#	133494
#	147091
#	163149
#	177922
#	193363
#	203901
#	219678
#	234479
#	257419
#	270452
#	280589
#	290602
#
# Disc length: 4122 seconds
#
# Revision: 2
# Processed by: cddbd v1.5.2PL0 Copyright (c) Steve Scherf et al.
# Submitted via: EasyCDDAExtractor 8.2.3.1
#
DISCID=32101814
DTITLE=David Allan Coe - 1990 Songs For Sale
DYEAR=1990
DGENRE=Country
TTITLE0=The Ghost Of Hank Williams
TTITLE1=The Only Thing Missing Is You
TTITLE2=Someday You'll Have Children Of Your Own
TTITLE3=I'm Not Ready For That Now
TTITLE4=Then I Found You
TTITLE5=I Only Know That You're Gone
TTITLE6=A Marriage Made In Heaven (Went To Hell)
TTITLE7=It's Too Late Now
TTITLE8=Time Don't Mean That Much To Me No More
TTITLE9=The Penny
TTITLE10=Drinking Her Off My Mind
TTITLE11=When She Was A Honky Tonk Girl
TTITLE12=You've Got A Hold Of My Heart
TTITLE13=The Devil Was To Blame
TTITLE14=Another Place Another Time
TTITLE15=She's Trying So Hard To Make Leavin' Easy
TTITLE16=Tennessee Waltz With Me
TTITLE17=She Just Wants To Be Alone
TTITLE18=My Own Two Eyes
TTITLE19=Show Me Your Feelings
EXTD=
EXTT0=
EXTT1=
EXTT2=
EXTT3=
EXTT4=
EXTT5=
EXTT6=
EXTT7=
EXTT8=DAC rec 007 ©1990
EXTT9=
EXTT10=
EXTT11=
EXTT12=
EXTT13=
EXTT14=
EXTT15=
EXTT16=
EXTT17=
EXTT18=
EXTT19=
PLAYORDER=
